{
  "accessors": [
    {
      "bufferView": 2,
      "componentType": 5126,
      "count": 4,
      "max": [
        0.41464701294898987,
        -2.2063379287719727,
        0.3356049954891205
      ],
      "min": [
        -0.41464701294898987,
        -2.234153985977173,
        0.3351989984512329
      ],
      "type": "VEC3"
    },
    {
      "bufferView": 1,
      "componentType": 5126,
      "count": 4,
      "max": [
        0.0,
        0.0
      ],
      "min": [
        0.0,
        0.0
      ],
      "type": "VEC2"
    },
    {
      "bufferView": 0,
      "componentType": 5125,
      "count": 4,
      "type": "SCALAR"
    },
    {
      "bufferView": 2,
      "byteOffset": 48,
      "componentType": 5126,
      "count": 12089,
      "max": [
        0.975246012210846,
        2.928251028060913,
        0.6721910238265991
      ],
      "min": [
        -0.9752470254898071,
        -2.7616848945617676,
        -0.7865899801254272
      ],
      "type": "VEC3"
    },
    {
      "bufferView": 2,
      "byteOffset": 145116,
      "componentType": 5126,
      "count": 12089,
      "max": [
        1.0,
        0.9999977350234985,
        1.0
      ],
      "min": [
        -1.0,
        -1.0,
        -1.0
      ],
      "type": "VEC3"
    },
    {
      "bufferView": 3,
      "componentType": 5126,
      "count": 12089,
      "max": [
        1.0,
        1.0,
        0.999976634979248,
        1.0
      ],
      "min": [
        -0.9999973177909851,
        -0.9999934434890747,
        -0.9999598860740662,
        -1.0
      ],
      "type": "VEC4"
    },
    {
      "bufferView": 1,
      "byteOffset": 32,
      "componentType": 5126,
      "count": 12089,
      "max": [
        0.9931920170783997,
        0.9896280169487
      ],
      "min": [
        0.006023999769240618,
        0.02433300018310547
      ],
      "type": "VEC2"
    },
    {
      "bufferView": 0,
      "byteOffset": 16,
      "componentType": 5125,
      "count": 36870,
      "type": "SCALAR"
    },
    {
      "bufferView": 2,
      "byteOffset": 290184,
      "componentType": 5126,
      "count": 11373,
      "max": [
        1.1537359952926636,
        2.754473924636841,
        0.6433939933776855
      ],
      "min": [
        -1.1537359952926636,
        -2.755837917327881,
        -0.7865899801254272
      ],
      "type": "VEC3"
    },
    {
      "bufferView": 2,
      "byteOffset": 426660,
      "componentType": 5126,
      "count": 11373,
      "max": [
        1.0,
        1.0,
        1.0
      ],
      "min": [
        -1.0,
        -1.0,
        -1.0
      ],
      "type": "VEC3"
    },
    {
      "bufferView": 3,
      "byteOffset": 193424,
      "componentType": 5126,
      "count": 11373,
      "max": [
        1.0,
        0.9999986290931702,
        0.9999998211860657,
        1.0
      ],
      "min": [
        -0.9999603033065796,
        -1.0,
        -1.0,
        -1.0
      ],
      "type": "VEC4"
    },
    {
      "bufferView": 1,
      "byteOffset": 96744,
      "componentType": 5126,
      "count": 11373,
      "max": [
        0.9992390275001526,
        0.9993820190429688
      ],
      "min": [
        0.0037140001077204943,
        0.015161000192165375
      ],
      "type": "VEC2"
    },
    {
      "bufferView": 0,
      "byteOffset": 147496,
      "componentType": 5125,
      "count": 31497,
      "type": "SCALAR"
    },
    {
      "bufferView": 2,
      "byteOffset": 563136,
      "componentType": 5126,
      "count": 2417,
      "max": [
        1.088657021522522,
        2.844011068344116,
        0.6183350086212158
      ],
      "min": [
        -1.088657021522522,
        -2.7585599422454834,
        -0.7492610216140747
      ],
      "type": "VEC3"
    },
    {
      "bufferView": 2,
      "byteOffset": 592140,
      "componentType": 5126,
      "count": 2417,
      "max": [
        1.0,
        0.9999043345451355,
        0.999997615814209
      ],
      "min": [
        -1.0,
        -1.0,
        -1.0
      ],
      "type": "VEC3"
    },
    {
      "bufferView": 3,
      "byteOffset": 375392,
      "componentType": 5126,
      "count": 2417,
      "max": [
        0.999914288520813,
        0.9999977350234985,
        0.9999980330467224,
        1.0
      ],
      "min": [
        -0.9999911785125732,
        -0.999628484249115,
        -0.999180018901825,
        -1.0
      ],
      "type": "VEC4"
    },
    {
      "bufferView": 1,
      "byteOffset": 187728,
      "componentType": 5126,
      "count": 2417,
      "max": [
        0.9947400093078613,
        0.9942240118980408
      ],
      "min": [
        0.0017740000039339066,
        0.005578999873250723
      ],
      "type": "VEC2"
    },
    {
      "bufferView": 0,
      "byteOffset": 273484,
      "componentType": 5125,
      "count": 6828,
      "type": "SCALAR"
    },
    {
      "bufferView": 2,
      "byteOffset": 621144,
      "componentType": 5126,
      "count": 258,
      "max": [
        0.801131010055542,
        1.8367639780044556,
        0.6030290126800537
      ],
      "min": [
        -0.801131010055542,
        -2.1697189807891846,
        -0.3820819854736328
      ],
      "type": "VEC3"
    },
    {
      "bufferView": 2,
      "byteOffset": 624240,
      "componentType": 5126,
      "count": 258,
      "max": [
        0.9529122710227966,
        0.7112790942192078,
        0.9525415897369385
      ],
      "min": [
        -0.9529122710227966,
        -0.5044136643409729,
        0.27337712049484253
      ],
      "type": "VEC3"
    },
    {
      "bufferView": 1,
      "byteOffset": 207064,
      "componentType": 5126,
      "count": 258,
      "max": [
        0.8123270273208618,
        0.900875985622406
      ],
      "min": [
        0.6552940011024475,
        0.5271310210227966
      ],
      "type": "VEC2"
    },
    {
      "bufferView": 0,
      "byteOffset": 300796,
      "componentType": 5125,
      "count": 1017,
      "type": "SCALAR"
    }
  ],
  "asset": {
    "extras": {
      "author": "skartemka (https://sketchfab.com/skartemka)",
      "license": "CC-BY-4.0 (http://creativecommons.org/licenses/by/4.0/)",
      "source": "https://sketchfab.com/3d-models/flying-car-d0efc1fe6c5c419896fe239d85c5e589",
      "title": "Flying Car"
    },
    "generator": "Sketchfab-14.70.0",
    "version": "2.0"
  },
  "bufferViews": [
    {
      "buffer": 0,
      "byteLength": 304864,
      "name": "floatBufferViews",
      "target": 34963
    },
    {
      "buffer": 0,
      "byteLength": 209128,
      "byteOffset": 304864,
      "byteStride": 8,
      "name": "floatBufferViews",
      "target": 34962
    },
    {
      "buffer": 0,
      "byteLength": 627336,
      "byteOffset": 513992,
      "byteStride": 12,
      "name": "floatBufferViews",
      "target": 34962
    },
    {
      "buffer": 0,
      "byteLength": 414064,
      "byteOffset": 1141328,
      "byteStride": 16,
      "name": "floatBufferViews",
      "target": 34962
    }
  ],
  "buffers": [
    {
      "byteLength": 1555392,
      "uri": "scene.bin"
    }
  ],
  "extensionsUsed": [
    "KHR_materials_specular"
  ],
  "images": [
    {
      "uri": "textures/material_baseColor.png"
    },
    {
      "uri": "textures/material_metallicRoughness.png"
    },
    {
      "uri": "textures/material_emissive.png"
    },
    {
      "uri": "textures/material_normal.png"
    },
    {
      "uri": "textures/material_specularf0.png"
    },
    {
      "uri": "textures/glass_baseColor.png"
    },
    {
      "uri": "textures/glass_metallicRoughness.png"
    }
  ],
  "materials": [
    {
      "doubleSided": true,
      "emissiveFactor": [
        1.0,
        1.0,
        1.0
      ],
      "emissiveTexture": {
        "index": 2
      },
      "extensions": {
        "KHR_materials_specular": {
          "specularColorFactor": [
            1.0,
            1.0,
            1.0
          ],
          "specularFactor": 1.0,
          "specularTexture": {
            "index": 4
          }
        }
      },
      "name": "material",
      "normalTexture": {
        "index": 3
      },
      "occlusionTexture": {
        "index": 1
      },
      "pbrMetallicRoughness": {
        "baseColorTexture": {
          "index": 0
        },
        "metallicRoughnessTexture": {
          "index": 1
        }
      }
    },
    {
      "alphaMode": "BLEND",
      "doubleSided": true,
      "name": "glass",
      "pbrMetallicRoughness": {
        "baseColorTexture": {
          "index": 5
        },
        "metallicFactor": 0.0,
        "metallicRoughnessTexture": {
          "index": 6
        }
      }
    }
  ],
  "meshes": [
    {
      "name": "Object_0",
      "primitives": [
        {
          "attributes": {
            "POSITION": 0,
            "TEXCOORD_0": 1
          },
          "indices": 2,
          "material": 0,
          "mode": 1
        }
      ]
    },
    {
      "name": "Object_1",
      "primitives": [
        {
          "attributes": {
            "NORMAL": 4,
            "POSITION": 3,
            "TANGENT": 5,
            "TEXCOORD_0": 6
          },
          "indices": 7,
          "material": 0,
          "mode": 4
        }
      ]
    },
    {
      "name": "Object_2",
      "primitives": [
        {
          "attributes": {
            "NORMAL": 9,
            "POSITION": 8,
            "TANGENT": 10,
            "TEXCOORD_0": 11
          },
          "indices": 12,
          "material": 0,
          "mode": 4
        }
      ]
    },
    {
      "name": "Object_3",
      "primitives": [
        {
          "attributes": {
            "NORMAL": 14,
            "POSITION": 13,
            "TANGENT": 15,
            "TEXCOORD_0": 16
          },
          "indices": 17,
          "material": 0,
          "mode": 4
        }
      ]
    },
    {
      "name": "Object_4",
      "primitives": [
        {
          "attributes": {
            "NORMAL": 19,
            "POSITION": 18,
            "TEXCOORD_0": 20
          },
          "indices": 21,
          "material": 1,
          "mode": 4
        }
      ]
    }
  ],
  "nodes": [
    {
      "children": [
        1
      ],
      "matrix": [
        1.0,
        0.0,
        0.0,
        0.0,
        0.0,
        2.220446049250313e-16,
        -1.0,
        0.0,
        0.0,
        1.0,
        2.220446049250313e-16,
        0.0,
        0.0,
        0.0,
        0.0,
        1.0
      ],
      "name": "Sketchfab_model"
    },
    {
      "children": [
        2,
        3,
        4,
        5,
        6
      ],
      "name": "282f352bac5b4e1fa59b36d5cf414583.obj.cleaner.materialmerger.gles"
    },
    {
      "mesh": 0,
      "name": "Object_2"
    },
    {
      "mesh": 1,
      "name": "Object_3"
    },
    {
      "mesh": 2,
      "name": "Object_4"
    },
    {
      "mesh": 3,
      "name": "Object_5"
    },
    {
      "mesh": 4,
      "name": "Object_6"
    }
  ],
  "samplers": [
    {
      "magFilter": 9729,
      "minFilter": 9987,
      "wrapS": 10497,
      "wrapT": 10497
    }
  ],
  "scene": 0,
  "scenes": [
    {
      "name": "Sketchfab_Scene",
      "nodes": [
        0
      ]
    }
  ],
  "textures": [
    {
      "sampler": 0,
      "source": 0
    },
    {
      "sampler": 0,
      "source": 1
    },
    {
      "sampler": 0,
      "source": 2
    },
    {
      "sampler": 0,
      "source": 3
    },
    {
      "sampler": 0,
      "source": 4
    },
    {
      "sampler": 0,
      "source": 5
    },
    {
      "sampler": 0,
      "source": 6
    }
  ]
}
