{
  "accessors": [
    {
      "bufferView": 2,
      "componentType": 5126,
      "count": 9931,
      "max": [
        0.10709047317504883,
        1.6934858560562134,
        -0.49267834424972534
      ],
      "min": [
        -4.175659656524658,
        0.20332415401935577,
        -3.0553576946258545
      ],
      "type": "VEC3"
    },
    {
      "bufferView": 2,
      "byteOffset": 119172,
      "componentType": 5126,
      "count": 9931,
      "max": [
        1.0,
        1.0,
        1.0
      ],
      "min": [
        -1.0,
        -1.0,
        -1.0
      ],
      "type": "VEC3"
    },
    {
      "bufferView": 1,
      "componentType": 5126,
      "count": 9931,
      "max": [
        0.9954949617385864,
        0.9950117468833923
      ],
      "min": [
        0.004360887687653303,
        0.005080622620880604
      ],
      "type": "VEC2"
    },
    {
      "bufferView": 0,
      "componentType": 5125,
      "count": 31566,
      "type": "SCALAR"
    },
    {
      "bufferView": 2,
      "byteOffset": 238344,
      "componentType": 5126,
      "count": 9690,
      "max": [
        0.034479618072509766,
        3.0197393894195557,
        -0.6114543080329895
      ],
      "min": [
        -3.2236173152923584,
        0.8980451822280884,
        -2.9470667839050293
      ],
      "type": "VEC3"
    },
    {
      "bufferView": 2,
      "byteOffset": 354624,
      "componentType": 5126,
      "count": 9690,
      "max": [
        1.0,
        1.0,
        1.0
      ],
      "min": [
        -1.0,
        -1.0,
        -1.0
      ],
      "type": "VEC3"
    },
    {
      "bufferView": 1,
      "byteOffset": 79448,
      "componentType": 5126,
      "count": 9690,
      "max": [
        0.9936832189559937,
        0.9966291785240173
      ],
      "min": [
        0.0019571781158447266,
        0.00199204683303833
      ],
      "type": "VEC2"
    },
    {
      "bufferView": 0,
      "byteOffset": 126264,
      "componentType": 5125,
      "count": 32064,
      "type": "SCALAR"
    },
    {
      "bufferView": 2,
      "byteOffset": 470904,
      "componentType": 5126,
      "count": 6029,
      "max": [
        -1.236360788345337,
        2.992922067642212,
        -0.9569094181060791
      ],
      "min": [
        -4.269684314727783,
        0.5394753217697144,
        -2.5928773880004883
      ],
      "type": "VEC3"
    },
    {
      "bufferView": 2,
      "byteOffset": 543252,
      "componentType": 5126,
      "count": 6029,
      "max": [
        1.0,
        1.0,
        1.0
      ],
      "min": [
        -1.0,
        -1.0,
        -1.0
      ],
      "type": "VEC3"
    },
    {
      "bufferView": 1,
      "byteOffset": 156968,
      "componentType": 5126,
      "count": 6029,
      "max": [
        0.9961287975311279,
        0.9980080127716064
      ],
      "min": [
        0.001850903034210205,
        0.00199204683303833
      ],
      "type": "VEC2"
    },
    {
      "bufferView": 0,
      "byteOffset": 254520,
      "componentType": 5125,
      "count": 18156,
      "type": "SCALAR"
    },
    {
      "bufferView": 2,
      "byteOffset": 615600,
      "componentType": 5126,
      "count": 3125,
      "max": [
        -0.2153024673461914,
        2.619042158126831,
        -0.7748358249664307
      ],
      "min": [
        -2.96415114402771,
        1.0794719457626343,
        -2.773200035095215
      ],
      "type": "VEC3"
    },
    {
      "bufferView": 2,
      "byteOffset": 653100,
      "componentType": 5126,
      "count": 3125,
      "max": [
        0.9999077320098877,
        0.9977853298187256,
        1.0
      ],
      "min": [
        -1.0,
        -0.9983454942703247,
        -1.0
      ],
      "type": "VEC3"
    },
    {
      "bufferView": 1,
      "byteOffset": 205200,
      "componentType": 5126,
      "count": 3125,
      "max": [
        0.9517959952354431,
        0.998008131980896
      ],
      "min": [
        0.001899792579934001,
        0.00199204683303833
      ],
      "type": "VEC2"
    },
    {
      "bufferView": 0,
      "byteOffset": 327144,
      "componentType": 5125,
      "count": 9453,
      "type": "SCALAR"
    },
    {
      "bufferView": 2,
      "byteOffset": 690600,
      "componentType": 5126,
      "count": 2130,
      "max": [
        10.054906845092773,
        9.627577781677246,
        1.6862668991088867
      ],
      "min": [
        -0.6788013577461243,
        6.004382610321045,
        -6.30718994140625
      ],
      "type": "VEC3"
    },
    {
      "bufferView": 2,
      "byteOffset": 716160,
      "componentType": 5126,
      "count": 2130,
      "max": [
        0.9997840523719788,
        0.9996211528778076,
        0.9999638795852661
      ],
      "min": [
        -0.9997671246528625,
        -0.9995858669281006,
        -0.9999638795852661
      ],
      "type": "VEC3"
    },
    {
      "bufferView": 1,
      "byteOffset": 230200,
      "componentType": 5126,
      "count": 2130,
      "max": [
        0.15824952721595764,
        1.1888386011123657
      ],
      "min": [
        0.005080588161945343,
        1.0053060054779053
      ],
      "type": "VEC2"
    },
    {
      "bufferView": 0,
      "byteOffset": 364956,
      "componentType": 5125,
      "count": 6828,
      "type": "SCALAR"
    }
  ],
  "asset": {
    "extras": {
      "author": "arthursgqg (https://sketchfab.com/arthursgqg)",
      "license": "CC-BY-4.0 (http://creativecommons.org/licenses/by/4.0/)",
      "source": "https://sketchfab.com/3d-models/french-car-7e2b3ed8c92f4e4e8c23dc02f00cdb1d",
      "title": "French Car"
    },
    "generator": "Sketchfab-12.68.0",
    "version": "2.0"
  },
  "bufferViews": [
    {
      "buffer": 0,
      "byteLength": 392268,
      "name": "floatBufferViews",
      "target": 34963
    },
    {
      "buffer": 0,
      "byteLength": 247240,
      "byteOffset": 392268,
      "byteStride": 8,
      "name": "floatBufferViews",
      "target": 34962
    },
    {
      "buffer": 0,
      "byteLength": 741720,
      "byteOffset": 639508,
      "byteStride": 12,
      "name": "floatBufferViews",
      "target": 34962
    }
  ],
  "buffers": [
    {
      "byteLength": 1381228,
      "uri": "scene.bin"
    }
  ],
  "extensionsUsed": [
    "KHR_materials_unlit"
  ],
  "images": [
    {
      "uri": "textures/S_UV01_CanosRodas_baseColor.png"
    },
    {
      "uri": "textures/S_UV02_Lataria_baseColor.png"
    },
    {
      "uri": "textures/S_UV03_MotorEtc_baseColor.png"
    },
    {
      "uri": "textures/S_UV04_Interior_baseColor.png"
    }
  ],
  "materials": [
    {
      "doubleSided": true,
      "extensions": {
        "KHR_materials_unlit": {}
      },
      "name": "S_UV01_CanosRodas",
      "pbrMetallicRoughness": {
        "baseColorTexture": {
          "index": 0
        },
        "metallicFactor": 0.0
      }
    },
    {
      "doubleSided": true,
      "extensions": {
        "KHR_materials_unlit": {}
      },
      "name": "S_UV02_Lataria",
      "pbrMetallicRoughness": {
        "baseColorTexture": {
          "index": 1
        },
        "metallicFactor": 0.0
      }
    },
    {
      "doubleSided": true,
      "extensions": {
        "KHR_materials_unlit": {}
      },
      "name": "S_UV03_MotorEtc",
      "pbrMetallicRoughness": {
        "baseColorTexture": {
          "index": 2
        },
        "metallicFactor": 0.0
      }
    },
    {
      "doubleSided": true,
      "extensions": {
        "KHR_materials_unlit": {}
      },
      "name": "S_UV04_Interior",
      "pbrMetallicRoughness": {
        "baseColorTexture": {
          "index": 3
        },
        "metallicFactor": 0.0
      }
    },
    {
      "alphaMode": "BLEND",
      "doubleSided": true,
      "extensions": {
        "KHR_materials_unlit": {}
      },
      "name": "blinn1",
      "pbrMetallicRoughness": {
        "baseColorFactor": [
          0.1347365746164536,
          0.1347365746164536,
          0.1347365746164536,
          0.43340234329873717
        ],
        "metallicFactor": 0.0
      }
    }
  ],
  "meshes": [
    {
      "name": "UV01_CanosRodas_S_UV01_CanosRodas_0",
      "primitives": [
        {
          "attributes": {
            "NORMAL": 1,
            "POSITION": 0,
            "TEXCOORD_0": 2
          },
          "indices": 3,
          "material": 0,
          "mode": 4
        }
      ]
    },
    {
      "name": "UV02_Lataria_S_UV02_Lataria_0",
      "primitives": [
        {
          "attributes": {
            "NORMAL": 5,
            "POSITION": 4,
            "TEXCOORD_0": 6
          },
          "indices": 7,
          "material": 1,
          "mode": 4
        }
      ]
    },
    {
      "name": "UV03_MotorEtc_S_UV03_MotorEtc_0",
      "primitives": [
        {
          "attributes": {
            "NORMAL": 9,
            "POSITION": 8,
            "TEXCOORD_0": 10
          },
          "indices": 11,
          "material": 2,
          "mode": 4
        }
      ]
    },
    {
      "name": "UV04_Interior_S_UV04_Interior_0",
      "primitives": [
        {
          "attributes": {
            "NORMAL": 13,
            "POSITION": 12,
            "TEXCOORD_0": 14
          },
          "indices": 15,
          "material": 3,
          "mode": 4
        }
      ]
    },
    {
      "name": "UV_Vidros_blinn1_0",
      "primitives": [
        {
          "attributes": {
            "NORMAL": 17,
            "POSITION": 16,
            "TEXCOORD_0": 18
          },
          "indices": 19,
          "material": 4,
          "mode": 4
        }
      ]
    }
  ],
  "nodes": [
    {
      "children": [
        1
      ],
      "matrix": [
        1.0,
        0.0,
        0.0,
        0.0,
        0.0,
        2.220446049250313e-16,
        -1.0,
        0.0,
        0.0,
        1.0,
        2.220446049250313e-16,
        0.0,
        0.0,
        0.0,
        0.0,
        1.0
      ],
      "name": "Sketchfab_model"
    },
    {
      "children": [
        2
      ],
      "matrix": [
        1.0,
        0.0,
        0.0,
        0.0,
        0.0,
        0.0,
        1.0,
        0.0,
        0.0,
        -1.0,
        0.0,
        0.0,
        0.0,
        0.0,
        0.0,
        1.0
      ],
      "name": "frenchcar.fbx"
    },
    {
      "children": [
        3,
        5,
        7,
        9,
        11
      ],
      "name": "RootNode"
    },
    {
      "children": [
        4
      ],
      "name": "UV01_CanosRodas"
    },
    {
      "mesh": 0,
      "name": "UV01_CanosRodas_S_UV01_CanosRodas_0"
    },
    {
      "children": [
        6
      ],
      "name": "UV02_Lataria"
    },
    {
      "mesh": 1,
      "name": "UV02_Lataria_S_UV02_Lataria_0"
    },
    {
      "children": [
        8
      ],
      "name": "UV03_MotorEtc"
    },
    {
      "mesh": 2,
      "name": "UV03_MotorEtc_S_UV03_MotorEtc_0"
    },
    {
      "children": [
        10
      ],
      "name": "UV04_Interior"
    },
    {
      "mesh": 3,
      "name": "UV04_Interior_S_UV04_Interior_0"
    },
    {
      "children": [
        12
      ],
      "matrix": [
        0.25,
        0.0,
        0.0,
        0.0,
        0.0,
        0.25,
        0.0,
        0.0,
        0.0,
        0.0,
        0.25,
        0.0,
        -2.728858470916748,
        0.17944559454917908,
        -1.1964025497436523,
        1.0
      ],
      "name": "UV_Vidros"
    },
    {
      "mesh": 4,
      "name": "UV_Vidros_blinn1_0"
    }
  ],
  "samplers": [
    {
      "magFilter": 9729,
      "minFilter": 9987,
      "wrapS": 10497,
      "wrapT": 10497
    }
  ],
  "scene": 0,
  "scenes": [
    {
      "name": "Sketchfab_Scene",
      "nodes": [
        0
      ]
    }
  ],
  "textures": [
    {
      "sampler": 0,
      "source": 0
    },
    {
      "sampler": 0,
      "source": 1
    },
    {
      "sampler": 0,
      "source": 2
    },
    {
      "sampler": 0,
      "source": 3
    }
  ]
}
